<svg width="21" height="22" viewBox="0 0 21 22" fill="none" xmlns="http://www.w3.org/2000/svg">
<path d="M9.07032 19.5029C9.0703 19.3563 9.03802 19.2114 8.97578 19.0786C8.91353 18.9458 8.82284 18.8284 8.71014 18.7345C8.59743 18.6407 8.46546 18.5728 8.32359 18.5356C8.18171 18.4985 8.03341 18.493 7.88917 18.5195C6.58009 18.7598 4.92726 18.7959 4.4878 17.5615C4.10461 16.6055 3.46988 15.7711 2.65089 15.1465C2.59246 15.1148 2.53677 15.0782 2.48439 15.0372C2.41272 14.8481 2.2854 14.6852 2.11925 14.5699C1.95311 14.4547 1.75592 14.3925 1.55372 14.3916H1.54884C1.28444 14.3916 1.03077 14.4962 0.843354 14.6827C0.655937 14.8692 0.55004 15.1224 0.548842 15.3868C0.544932 16.2022 1.35984 16.7247 1.69044 16.9014C2.08029 17.2931 2.39359 17.7541 2.61427 18.2608C2.97853 19.2842 4.03712 20.837 7.08009 20.6368C7.08109 20.6719 7.08204 20.7051 7.08253 20.7354L7.08692 21.003C7.08692 21.2682 7.19228 21.5226 7.37982 21.7101C7.56735 21.8976 7.82171 22.003 8.08692 22.003C8.35214 22.003 8.60649 21.8976 8.79403 21.7101C8.98157 21.5226 9.08692 21.2682 9.08692 21.003L9.08204 20.6846C9.07716 20.4951 9.07032 20.2207 9.07032 19.5029ZM19.7373 4.37694C19.7691 4.25194 19.8003 4.11327 19.8277 3.95702C19.9894 2.84261 19.8484 1.70521 19.4195 0.664018C19.3653 0.528281 19.2822 0.406025 19.1758 0.305821C19.0694 0.205617 18.9425 0.12989 18.8037 0.0839482C18.4477 -0.0361718 17.1333 -0.272502 14.6197 1.33395C12.5302 0.842243 10.3551 0.842243 8.26565 1.33395C5.76222 -0.248972 4.4546 -0.0341718 4.10206 0.0791082C3.95993 0.123189 3.82946 0.198515 3.72021 0.299566C3.61097 0.400617 3.52572 0.524833 3.47071 0.663108C3.03301 1.72429 2.89355 2.88488 3.06739 4.01955C3.09181 4.14748 3.11817 4.26565 3.14552 4.37404C2.31709 5.47748 1.87583 6.8234 1.89015 8.20314C1.88745 8.51097 1.90163 8.81873 1.93263 9.12501C2.26663 13.7275 5.26663 15.1094 7.35694 15.584C7.31349 15.709 7.27394 15.8428 7.23878 15.9844C7.17612 16.2417 7.21805 16.5133 7.35538 16.7398C7.49271 16.9662 7.71423 17.1289 7.97135 17.1923C8.22848 17.2556 8.50024 17.2144 8.72703 17.0777C8.95382 16.941 9.11714 16.7199 9.18116 16.4629C9.24479 16.1297 9.40788 15.8236 9.64894 15.585C9.7947 15.4574 9.90023 15.2902 9.9527 15.1037C10.0052 14.9172 10.0023 14.7195 9.94447 14.5346C9.88663 14.3497 9.77631 14.1856 9.62693 14.0623C9.47754 13.9389 9.29554 13.8617 9.10304 13.8399C5.64894 13.4453 4.14942 12.0381 3.92384 8.94143C3.89885 8.69616 3.88761 8.44968 3.89015 8.20315C3.87411 7.2198 4.19898 6.26123 4.80958 5.49026C4.87094 5.40988 4.93628 5.33263 5.00538 5.25881C5.12781 5.12181 5.21013 4.95373 5.2433 4.77301C5.27646 4.5923 5.25919 4.40594 5.19338 4.2344C5.12592 4.05393 5.07397 3.86803 5.03811 3.67873C4.95664 3.14044 4.98337 2.59132 5.11671 2.06349C5.98585 2.30896 6.80383 2.70853 7.53171 3.24317C7.65208 3.32334 7.78828 3.3767 7.93108 3.39961C8.07388 3.42253 8.21994 3.41447 8.35935 3.37599C10.3805 2.82749 12.5113 2.82783 14.5322 3.37699C14.6724 3.41543 14.8192 3.42303 14.9626 3.39926C15.106 3.37549 15.2425 3.32091 15.3628 3.2393C16.0872 2.70244 16.9018 2.2993 17.768 2.04887C17.9008 2.56402 17.9305 3.10032 17.8554 3.62699C17.8192 3.83453 17.7626 4.03799 17.6865 4.23442C17.6207 4.40596 17.6034 4.59232 17.6366 4.77303C17.6697 4.95375 17.7521 5.12183 17.8745 5.25883C17.9516 5.34574 18.0288 5.43949 18.0981 5.52738C18.7044 6.2853 19.0238 7.23285 19 8.20314C19.0018 8.46275 18.9893 8.72226 18.9624 8.98048C18.7422 12.0361 17.2368 13.4443 13.7666 13.8398C13.5741 13.8618 13.392 13.9392 13.2427 14.0626C13.0933 14.1861 12.983 14.3503 12.9253 14.5353C12.8675 14.7202 12.8647 14.918 12.9172 15.1046C12.9698 15.2911 13.0754 15.4583 13.2212 15.5859C13.4698 15.831 13.6333 16.1493 13.6875 16.4941C13.7551 16.7618 13.7861 17.0375 13.7798 17.3135V19.6475C13.77 20.2949 13.77 20.7803 13.77 21.0029C13.77 21.2682 13.8754 21.5225 14.0629 21.71C14.2504 21.8976 14.5048 22.0029 14.77 22.0029C15.0352 22.0029 15.2896 21.8976 15.4771 21.71C15.6647 21.5225 15.77 21.2682 15.77 21.0029C15.77 20.7861 15.77 20.3106 15.7798 19.6631V17.3135C15.7878 16.8713 15.7358 16.4301 15.625 16.002C15.5933 15.8614 15.5545 15.7226 15.5088 15.586C17.03 15.3332 18.4123 14.5489 19.4094 13.3726C20.4066 12.1962 20.9539 10.7042 20.9541 9.16213C20.987 8.84355 21.0024 8.5234 21 8.20314C21.0222 6.82191 20.5773 5.47366 19.7373 4.37696L19.7373 4.37694Z" fill="#232E35"/>
</svg>
