<svg width="22" height="20" viewBox="0 0 22 20" fill="none" xmlns="http://www.w3.org/2000/svg">
<path d="M21.9912 1.95021C21.9913 1.77357 21.9447 1.60007 21.8559 1.44735C21.7671 1.29464 21.6395 1.16817 21.486 1.08084C21.3324 0.993502 21.1585 0.948416 20.9819 0.95017C20.8053 0.951925 20.6323 1.00046 20.4805 1.09083C19.8952 1.43921 19.265 1.70601 18.6075 1.88383C17.6685 1.07806 16.4708 0.637129 15.2335 0.641636C13.8761 0.643198 12.5724 1.17223 11.5977 2.11702C10.623 3.06181 10.0537 4.3484 10.0099 5.70512C7.33384 5.27838 4.90849 3.88164 3.19631 1.78126C3.09315 1.65609 2.9614 1.55757 2.81217 1.494C2.66295 1.43043 2.50062 1.40368 2.33889 1.41601C2.17725 1.42932 2.02128 1.4818 1.88448 1.56892C1.74768 1.65603 1.63416 1.77516 1.55373 1.91601C1.14126 2.63582 0.904361 3.44276 0.862279 4.27131C0.820198 5.09986 0.974118 5.92666 1.31154 6.68456L1.30959 6.68651C1.15794 6.77991 1.03278 6.91066 0.946095 7.06625C0.859408 7.22185 0.814089 7.39708 0.81447 7.57519C0.812634 7.72211 0.821447 7.86898 0.84084 8.01464C0.942977 9.2729 1.50062 10.4507 2.4092 11.3271C2.34756 11.4446 2.30994 11.5731 2.29854 11.7052C2.28714 11.8373 2.30218 11.9704 2.34279 12.0967C2.7389 13.3308 3.58129 14.3727 4.7051 15.0185C3.56334 15.46 2.33052 15.614 1.11525 15.4668C0.890322 15.4386 0.66248 15.4876 0.469098 15.6059C0.275716 15.7242 0.128277 15.9047 0.0509651 16.1178C-0.0263465 16.3309 -0.0289396 16.5639 0.0436109 16.7787C0.116161 16.9935 0.259548 17.1772 0.45025 17.2998C2.54034 18.646 4.97393 19.3617 7.46002 19.3613C10.2793 19.393 13.03 18.4921 15.2843 16.7988C17.5385 15.1054 19.17 12.7145 19.9248 9.99801C20.2779 8.81464 20.4582 7.58648 20.46 6.35157C20.46 6.28614 20.46 6.21876 20.459 6.15138C20.9811 5.58831 21.3856 4.92668 21.6487 4.20527C21.9118 3.48387 22.0283 2.7172 21.9912 1.95021ZM18.6846 5.16212C18.5194 5.35746 18.4358 5.60891 18.4512 5.86427C18.461 6.02927 18.46 6.19527 18.46 6.35157C18.4579 7.39511 18.305 8.43287 18.0059 9.43263C17.3894 11.744 16.015 13.7817 14.103 15.2192C12.1909 16.6568 9.8517 17.4111 7.46002 17.3613C6.6009 17.3616 5.74474 17.2606 4.90924 17.0606C5.97465 16.7172 6.97083 16.1879 7.85162 15.4971C8.01385 15.3693 8.13257 15.1945 8.19151 14.9967C8.25044 14.7988 8.2467 14.5875 8.18079 14.3918C8.11489 14.1961 7.99005 14.0257 7.8234 13.9038C7.65675 13.7819 7.45647 13.7145 7.25002 13.7109C6.41885 13.698 5.62515 13.363 5.03615 12.7764C5.18557 12.7481 5.33401 12.7129 5.48147 12.6709C5.69748 12.6094 5.88651 12.477 6.01813 12.295C6.14975 12.1131 6.21629 11.8921 6.20704 11.6677C6.1978 11.4433 6.1133 11.2285 5.96715 11.058C5.82101 10.8874 5.62173 10.7711 5.40139 10.7275C4.91893 10.6323 4.46494 10.427 4.0747 10.1277C3.68447 9.82845 3.36852 9.44321 3.15139 9.00196C3.33212 9.02662 3.514 9.04194 3.69631 9.04786C3.91289 9.05113 4.1249 8.98543 4.30169 8.86026C4.47847 8.73509 4.61086 8.55694 4.67971 8.35157C4.74569 8.14433 4.74229 7.92123 4.67004 7.7161C4.59778 7.51096 4.46061 7.33499 4.27932 7.21485C3.83947 6.92182 3.47916 6.52427 3.23068 6.0578C2.98219 5.59134 2.85328 5.07052 2.85549 4.54201C2.85549 4.47561 2.85744 4.4092 2.86135 4.34377C5.10261 6.43402 8.00967 7.66621 11.0703 7.82326C11.2248 7.82934 11.3787 7.80024 11.5203 7.73816C11.6619 7.67607 11.7875 7.58262 11.8877 7.46486C11.9869 7.34596 12.0571 7.20566 12.0929 7.05501C12.1286 6.90437 12.1289 6.74748 12.0937 6.5967C12.0366 6.35806 12.0074 6.11357 12.0068 5.86818C12.0077 5.01271 12.348 4.19254 12.9529 3.58764C13.5578 2.98274 14.378 2.64251 15.2334 2.64161C15.6736 2.64043 16.1092 2.7305 16.5127 2.90615C16.9163 3.0818 17.2791 3.3392 17.5781 3.66212C17.6935 3.7862 17.8386 3.87871 17.9998 3.93085C18.161 3.98299 18.3329 3.99303 18.499 3.96001C18.9098 3.88006 19.3147 3.7724 19.7109 3.63775C19.4407 4.19072 19.0953 4.70369 18.6846 5.16212Z" fill="#232E35"/>
</svg>
