<svg width="16" height="320" viewBox="0 0 16 320" fill="none" xmlns="http://www.w3.org/2000/svg">
<path d="M16 8C16 12.4183 12.4183 16 8 16C3.58172 16 0 12.4183 0 8C0 3.58172 3.58172 0 8 0C12.4183 0 16 3.58172 16 8Z" fill="#F1F1F1"/>
<path d="M16 160C16 164.418 12.4183 168 8 168C3.58172 168 0 164.418 0 160C0 155.582 3.58172 152 8 152C12.4183 152 16 155.582 16 160Z" fill="#F1F1F1"/>
<path d="M16 312C16 316.418 12.4183 320 8 320C3.58172 320 0 316.418 0 312C0 307.582 3.58172 304 8 304C12.4183 304 16 307.582 16 312Z" fill="#F1F1F1"/>
<path fill-rule="evenodd" clip-rule="evenodd" d="M8 312.002L8 4H9L9 312.002H8Z" fill="#F1F1F1"/>
</svg>
