<svg width="56" height="56" viewBox="0 0 56 56" fill="none" xmlns="http://www.w3.org/2000/svg">
<rect width="56" height="56" rx="16" fill="#F5F3FE"/>
<path d="M30.5 22.5C31.2372 22.6438 31.9689 22.9689 32.5 23.5C33.0311 24.0311 33.3562 24.7628 33.5 25.5M31 19C32.5315 19.1701 33.9097 19.9111 35 21C36.0903 22.0889 36.8279 23.4687 37 25M36.9995 32.4767V35.1864C37.0037 36.2223 36.0723 37.0873 35.0265 36.9929C26.0001 37 19.0001 29.935 19.0071 20.9692C18.9129 19.9289 19.7736 19.0011 20.8082 19.0001H23.5233C23.9625 18.9958 24.3883 19.151 24.7214 19.4368C25.6682 20.2495 26.2772 23.0078 26.0429 24.1043C25.8599 24.9604 24.997 25.5593 24.4103 26.1448C25.6986 28.4062 27.5747 30.2785 29.8405 31.5644C30.4272 30.9788 31.0274 30.1176 31.8851 29.935C32.9855 29.7008 35.7615 30.3106 36.5709 31.264C36.858 31.6021 37.0105 32.0337 36.9995 32.4767Z" stroke="#7E74F1" stroke-width="1.5" stroke-linecap="round" stroke-linejoin="round"/>
</svg>
