<svg width="56" height="56" viewBox="0 0 56 56" fill="none" xmlns="http://www.w3.org/2000/svg">
<rect width="56" height="56" rx="16" fill="#F5F3FE"/>
<path d="M19.2929 21.2929C19.4739 21.1119 19.7239 21 20 21H36C36.2761 21 36.5261 21.1119 36.7071 21.2929M19.2929 21.2929C19.1119 21.4739 19 21.7239 19 22V34C19 34.5523 19.4477 35 20 35H36C36.5523 35 37 34.5523 37 34V22C37 21.7239 36.8881 21.4739 36.7071 21.2929M19.2929 21.2929L26.5858 28.5857C27.3668 29.3668 28.6332 29.3668 29.4142 28.5857L36.7071 21.2929" stroke="#7E74F1" stroke-width="1.5" stroke-linecap="round" stroke-linejoin="round"/>
</svg>
